<?xml version='1.0' encoding='iso-8859-1'?>
<svg version="1.1" xmlns="http://www.w3.org/2000/svg" viewBox="0 0 75.449 75.449" xmlns:xlink="http://www.w3.org/1999/xlink" enable-background="new 0 0 75.449 75.449">
  <g>
    <path d="m36.949,16.144c0.384,0 0.768-0.146 1.061-0.439l6.79-6.79c0.586-0.585 0.586-1.536 0-2.121-0.586-0.586-1.535-0.586-2.121,0l-6.79,6.79c-0.586,0.585-0.586,1.536 0,2.121 0.292,0.292 0.676,0.439 1.06,0.439z"/>
    <path d="m43.509,23.324c0.293,0.293 0.677,0.439 1.061,0.439s0.768-0.146 1.061-0.439l7.66-7.66c0.586-0.585 0.586-1.536 0-2.121-0.586-0.586-1.535-0.586-2.121,0l-7.66,7.66c-0.587,0.586-0.587,1.536-0.001,2.121z"/>
    <path d="m55.919,12.414c0.384,0 0.768-0.146 1.061-0.439l3.31-3.31c0.586-0.585 0.586-1.536 0-2.121-0.586-0.586-1.535-0.586-2.121,0l-3.31,3.31c-0.586,0.585-0.586,1.536 0,2.121 0.293,0.292 0.676,0.439 1.06,0.439z"/>
    <path d="m75.009,7.063c-0.586-0.586-1.535-0.586-2.121,0l-21.76,21.76c-0.586,0.585-0.586,1.536 0,2.121 0.293,0.293 0.677,0.439 1.061,0.439s0.768-0.146 1.061-0.439l21.76-21.76c0.585-0.585 0.585-1.535-0.001-2.121z"/>
    <path d="m46.998,44.049c-0.001-0.008-0.002-0.016-0.003-0.024-0.372-5.13-2.36-9.877-5.736-13.704-0.314-0.375-0.654-0.743-1.069-1.157-3.985-3.985-9.25-6.401-14.836-6.816-0.005-0.001-0.01-0.001-0.015-0.002-0.024-0.002-0.047-0.007-0.071-0.008-6.471-0.485-12.905,1.751-17.624,6.104-0.256,0.223-0.512,0.467-0.745,0.7-4.844,4.833-7.335,11.529-6.837,18.365 0.002,0.025 0.007,0.049 0.008,0.074 0.001,0.011 0.002,0.022 0.004,0.032 0.408,5.579 2.812,10.839 6.784,14.822 0.423,0.422 0.791,0.762 1.125,1.04 3.87,3.433 8.648,5.439 13.813,5.805 0.585,0.043 1.169,0.065 1.751,0.065 6.203-0.001 12.182-2.46 16.664-6.932 0.1-0.099 0.199-0.201 0.29-0.312 4.607-4.783 6.977-11.333 6.504-17.98-0.001-0.025-0.006-0.048-0.007-0.072zm-37.978-12.785c0.187-0.186 0.39-0.382 0.626-0.588 3.77-3.477 8.757-5.403 13.878-5.403 0.061,0 0.122,0.006 0.183,0.007 0.015,1.424-0.12,2.841-0.405,4.241l-.583-.11c-0.816-0.155-1.6,0.379-1.754,1.193-0.155,0.814 0.379,1.599 1.193,1.754l.336,.063c-0.453,1.25-1.038,2.449-1.736,3.597l-.467-.275c-0.712-0.421-1.632-0.185-2.054,0.529-0.421,0.713-0.185,1.633 0.529,2.054l.262,.154c-0.421,0.514-0.864,1.013-1.339,1.483-0.104,0.104-0.214,0.216-0.383,0.363-0.415,0.394-0.847,0.764-1.29,1.119l-.338-.414c-0.526-0.64-1.472-0.732-2.111-0.205-0.64,0.526-0.731,1.472-0.205,2.111l.177,.217c-1.151,0.679-2.366,1.231-3.631,1.665l-.175-.497c-0.277-0.78-1.134-1.19-1.916-0.911-0.781,0.276-1.189,1.134-0.912,1.915l.095,.271c-1.316,0.25-2.652,0.362-3.995,0.351-0.041-5.494 2.107-10.784 6.015-14.684zm-.039,29.05c-3.088-3.095-5.085-7.076-5.736-11.354 1.603-0.005 3.195-0.176 4.761-0.505l.307,.872c0.216,0.618 0.796,1.006 1.417,1.006 0.164,0 0.331-0.026 0.494-0.084 0.782-0.272 1.195-1.128 0.922-1.91l-.243-.691c1.594-0.549 3.114-1.274 4.546-2.158l.597,.73c0.296,0.364 0.729,0.554 1.165,0.554 0.333,0 0.667-0.11 0.945-0.336 0.643-0.523 0.74-1.468 0.217-2.11l-.457-.559c0.49-0.393 0.963-0.8 1.4-1.216 0.169-0.145 0.338-0.312 0.489-0.463 0.657-0.65 1.255-1.354 1.822-2.076l.801,.472c0.239,0.141 0.501,0.208 0.76,0.208 0.514,0 1.014-0.264 1.293-0.738 0.421-0.713 0.184-1.633-0.53-2.054l-.609-.359c0.875-1.444 1.581-2.971 2.12-4.561l.88,.166c0.093,0.018 0.187,0.026 0.278,0.026 0.708,0 1.337-0.503 1.473-1.224 0.153-0.814-0.383-1.598-1.197-1.751l-.646-.122c0.304-1.503 0.463-3.024 0.464-4.555 4.274,0.659 8.257,2.665 11.355,5.763 0.318,0.317 0.609,0.626 0.915,0.991 2.611,2.961 4.268,6.524 4.847,10.39-1.509-0.001-3.007,0.151-4.483,0.443l-.105-.56c-0.152-0.812-0.932-1.347-1.75-1.199-0.814,0.152-1.352,0.936-1.2,1.75l.146,.781c-1.615,0.534-3.16,1.237-4.616,2.108l-.294-.498c-0.422-0.713-1.34-0.949-2.054-0.529-0.714,0.421-0.951,1.341-0.53,2.055l.402,.681c-0.724,0.568-1.428,1.164-2.069,1.805-0.222,0.209-0.431,0.42-0.576,0.597-0.396,0.423-0.779,0.869-1.15,1.329l-.436-.356c-0.642-0.525-1.587-0.428-2.11,0.213-0.524,0.642-0.429,1.587 0.213,2.111l.608,.496c-0.895,1.454-1.625,2.991-2.174,4.599l-.545-.192c-0.781-0.277-1.638,0.134-1.914,0.914-0.276,0.781 0.134,1.639 0.915,1.914l.75,.264c-0.325,1.544-0.499,3.119-0.503,4.712-3.868-0.587-7.433-2.257-10.416-4.901-0.335-0.282-0.643-0.573-0.959-0.889zm29.312-.244c-0.048,0.049-0.075,0.079-0.116,0.135l-.137,.138c-3.912,3.903-9.195,6.047-14.676,5.997-0.012-1.331 0.097-2.65 0.342-3.947l.418,.147c0.164,0.058 0.331,0.084 0.496,0.084 0.62,0 1.199-0.387 1.416-1.004 0.274-0.782-0.138-1.638-0.92-1.912l-.632-.222c0.437-1.283 0.995-2.516 1.682-3.684l.335,.273c0.279,0.229 0.615,0.339 0.948,0.339 0.435,0 0.866-0.188 1.163-0.551 0.524-0.642 0.429-1.587-0.212-2.11l-.521-.426c0.336-0.418 0.689-0.829 1.07-1.237 0.123-0.146 0.253-0.274 0.423-0.436 0.482-0.481 0.99-0.93 1.513-1.358l.224,.38c0.28,0.474 0.78,0.737 1.293,0.737 0.259,0 0.521-0.067 0.761-0.208 0.714-0.421 0.951-1.341 0.53-2.055l-.342-.58c1.157-0.694 2.373-1.274 3.647-1.723l.079,.422c0.135,0.721 0.765,1.224 1.473,1.224 0.091,0 0.185-0.008 0.278-0.025 0.814-0.153 1.351-0.937 1.198-1.751l-.123-.66c1.37-0.273 2.761-0.401 4.16-0.385 0.027,5.358-2.032,10.544-5.77,14.398z"/>
  </g>
</svg>
