<?xml version='1.0' encoding='iso-8859-1'?>
<svg version="1.1" xmlns="http://www.w3.org/2000/svg" viewBox="0 0 87.315 87.315" xmlns:xlink="http://www.w3.org/1999/xlink" enable-background="new 0 0 87.315 87.315">
  <g>
    <path d="m53.314,27.916c-0.437-0.427-0.949-0.922-1.484-1.371-0.025-0.022-0.053-0.041-0.078-0.064-0.002-0.002-0.003-0.004-0.005-0.005-0.001-0.001-0.002-0.001-0.003-0.002-5.083-4.473-11.344-7.102-18.117-7.61-0.023-0.003-0.046-0.006-0.069-0.008-0.013-0.001-0.027-0.003-0.04-0.004-9.055-0.675-17.928,2.621-24.362,9.045-0.142,0.142-0.281,0.285-0.413,0.445-6.136,6.344-9.293,15.048-8.664,23.89 0.002,0.026 0.007,0.051 0.008,0.077 0.001,0.006 0.001,0.012 0.002,0.019 0.497,6.817 3.139,13.12 7.616,18.191 0.484,0.591 0.989,1.11 1.418,1.539 5.303,5.313 12.331,8.762 19.778,9.281 0.037,0.003 0.074,0.239 0.111,0.239 0,0 0.001,0 0.001,0 0.001,0 0.002,0 0.002,0 0.743,0 1.485-0.151 2.227-0.151 7.783,0 15.353-3.044 21.008-8.277 0.38-0.309 0.723-0.71 1.024-1.011 6.426-6.416 9.731-15.32 9.066-24.378-0.52-7.469-3.721-14.531-9.026-19.845zm6.221,18.357c-7.755-0.22-15.34,2.472-21.211,7.526-1.39-1.522-2.816-3.044-4.271-4.557 6.067-6.175 11.792-12.722 17.055-19.504 0.123,0.106 0.238,0.21 0.339,0.308 4.385,4.395 6.923,10.107 8.088,16.227zm-50.433,21.21c-3.192-3.998-5.191-8.71-5.846-13.793 0.181,0.003 0.363,0.02 0.544,0.02 8.075,0 15.843-3.13 21.693-8.788 1.339,1.288 2.491,2.414 3.55,3.474 0.279,0.275 0.557,0.551 0.831,0.829-6.586,6.545-13.568,12.676-20.772,18.258zm18.445-24.747c4.91-5.752 7.56-13.146 7.432-20.711 5.067,0.651 9.8,2.631 13.811,5.81-5.191,6.695-10.839,13.157-16.825,19.253-0.271-0.274-0.536-0.553-0.808-0.821-1.074-1.073-2.246-2.219-3.61-3.531zm4.426-20.956c0.189,6.877-2.165,13.618-6.613,18.898-4.331-4.046-8.773-7.887-13.247-11.456 5.219-4.802 12.024-7.456 19.083-7.456 0.252,0 0.515,0.007 0.777,0.014zm-21.955,9.605c4.486,3.569 8.943,7.419 13.288,11.478-5.449,5.229-12.749,8.042-20.293,7.832-0.172-7.098 2.334-14.005 7.005-19.31zm1.05,38.369c7.24-5.62 14.257-11.787 20.885-18.371 1.421,1.479 2.827,2.969 4.186,4.457-5.719,5.952-8.829,13.89-8.697,22.096-6.105-0.799-11.805-3.599-16.197-8-0.055-0.055-0.119-0.123-0.177-0.182zm19.382,8.423c-0.197-7.438 2.565-14.648 7.701-20.084 3.929,4.42 7.657,8.971 11.114,13.569-5.23,4.379-11.954,6.71-18.815,6.515zm21.135-8.419c-3.503-4.654-7.278-9.259-11.255-13.73 5.389-4.618 12.369-7.035 19.478-6.74-0.27,7.626-2.862,15.006-8.223,20.47z"/>
    <path d="m48.825,15.778c0.384,0 0.768-0.146 1.061-0.439l6.79-6.79c0.586-0.586 0.586-1.536 0-2.121-0.586-0.586-1.535-0.586-2.121,0l-6.79,6.79c-0.586,0.586-0.586,1.536 0,2.121 0.293,0.292 0.677,0.439 1.06,0.439z"/>
    <path d="m55.384,22.948c0.293,0.293 0.677,0.439 1.061,0.439s0.768-0.146 1.061-0.439l7.66-7.66c0.586-0.585 0.586-1.536 0-2.121-0.586-0.586-1.535-0.586-2.121,0l-7.66,7.66c-0.586,0.586-0.586,1.536-0.001,2.121z"/>
    <path d="m67.795,12.038c0.383,0 0.766-0.146 1.059-0.438l3.31-3.3c0.586-0.585 0.588-1.535 0.003-2.122-0.586-0.587-1.535-0.588-2.122-0.003l-3.31,3.3c-0.586,0.585-0.588,1.535-0.003,2.122 0.294,0.294 0.678,0.441 1.063,0.441z"/>
    <path d="m86.876,6.687c-0.586-0.586-1.535-0.586-2.121,0l-21.76,21.76c-0.586,0.586-0.586,1.536 0,2.121 0.293,0.293 0.677,0.439 1.061,0.439 0.384,0 0.768-0.146 1.061-0.439l21.76-21.76c0.585-0.586 0.585-1.536-0.001-2.121z"/>
  </g>
</svg>
