<?xml version='1.0' encoding='iso-8859-1'?>
<svg version="1.1" xmlns="http://www.w3.org/2000/svg" viewBox="0 0 87.509 87.509" xmlns:xlink="http://www.w3.org/1999/xlink" enable-background="new 0 0 87.509 87.509">
  <g>
    <path d="m53.331,28.234c-0.515-0.525-1.015-0.99-1.497-1.393-2.28-2.022-4.83-3.688-7.58-4.951-3.39-1.554-7.003-2.707-10.736-2.972-0.583-0.042-1.167-0.304-1.718-0.304-0.003,0-0.006,0-0.009,0-6.051,0-11.938,1.719-17.014,4.9-1.982,1.211-3.872,2.818-5.619,4.554-0.141,0.141-0.289,0.35-0.422,0.512-5.854,6.051-9.03,14.379-8.715,22.841l.061,1.082c0.269,3.898 1.242,7.641 2.891,11.107 1.243,2.624 2.848,5.063 4.745,7.214 0.386,0.461 0.827,0.944 1.399,1.529 1.953,1.953 4.154,3.64 6.543,5.011 4.017,2.312 8.6,3.707 13.246,4.037 0.772,0.058 1.545,0.086 2.318,0.086 4.347,0 8.675-0.906 12.641-2.66 0.05-0.022 0.098-0.047 0.145-0.074 3.041-1.356 5.837-3.2 8.248-5.428 0.292-0.239 0.609-0.535 0.92-0.859l.089-.089c4.665-4.654 7.684-10.541 8.731-17.022 0.003-0.019 0.005-0.037 0.008-0.057 0.396-2.376 0.507-4.824 0.328-7.279-0.51-7.465-3.712-14.494-9.003-19.785zm5.502,26.62c-0.004,0.023 0.096,0.048 0.093,0.072-0.954,5.834-3.626,11.133-7.83,15.327l-.084,.11c-0.21,0.218-0.431,0.446-0.734,0.697-2.272,2.096-4.835,3.781-7.63,5.01-0.05,0.021-0.094,0.046-0.141,0.073-4.184,1.822-8.807,2.603-13.385,2.264-4.203-0.297-8.34-1.558-11.968-3.645-2.161-1.24-4.15-2.765-5.905-4.52-0.506-0.517-0.897-0.942-1.257-1.372-1.737-1.969-3.186-4.169-4.31-6.542-1.488-3.127-2.366-6.498-2.607-10.002l-.059-1.02c-0.288-7.752 2.523-15.079 7.917-20.63 0.037-0.037 0.071-0.076 0.103-0.117 0.073-0.093 0.162-0.177 0.238-0.254 1.578-1.567 3.282-2.914 5.079-4.012 4.422-2.772 9.514-4.229 14.792-4.229 0.204,0 0.408,0.003 0.612,0.007 0.514,0 1.027,0.029 1.543,0.066 3.375,0.24 6.64,1.074 9.701,2.477 2.48,1.14 4.782,2.643 6.873,4.497 0.437,0.365 0.659,0.765 1.115,1.23 4.791,4.791 7.937,11.142 7.937,17.882 0,0.002 0,0.004 0,0.007 1.003,2.238 0.271,4.467-0.093,6.624z"/>
    <path d="m49.019,16.064c0.384,0 0.768-0.146 1.061-0.439l6.79-6.79c0.586-0.586 0.586-1.535 0-2.121s-1.535-0.586-2.121,0l-6.79,6.79c-0.586,0.586-0.586,1.535 0,2.121 0.292,0.292 0.676,0.439 1.06,0.439z"/>
    <path d="m55.579,23.246c0.293,0.292 0.676,0.438 1.06,0.438 0.384,0 0.769-0.146 1.062-0.44l7.66-7.67c0.585-0.586 0.584-1.535-0.001-2.121-0.586-0.584-1.536-0.586-2.122,0.002l-7.66,7.67c-0.586,0.585-0.585,1.535 0.001,2.121z"/>
    <path d="m67.989,12.324c0.383,0 0.766-0.146 1.059-0.438l3.31-3.3c0.586-0.585 0.588-1.535 0.003-2.121-0.586-0.587-1.535-0.59-2.122-0.004l-3.31,3.3c-0.586,0.585-0.588,1.535-0.003,2.121 0.294,0.294 0.678,0.442 1.063,0.442z"/>
    <path d="m87.07,6.973c-0.586-0.586-1.535-0.586-2.121,0l-21.76,21.76c-0.586,0.586-0.586,1.535 0,2.121 0.293,0.293 0.677,0.439 1.061,0.439s0.768-0.146 1.061-0.439l21.76-21.76c0.585-0.586 0.585-1.535-0.001-2.121z"/>
    <path d="m41.444,29.327c-0.985-0.992-2.299-1.538-3.7-1.538-1.4,0-2.714,0.546-3.695,1.534-2.04,2.041-2.04,5.361 0,7.401 0.985,0.984 2.297,1.527 3.696,1.527s2.711-0.543 3.696-1.527c2.039-2.04 2.039-5.36 0.003-7.397zm-2.125,5.276c-0.836,0.836-2.313,0.836-3.149,0-0.871-0.871-0.871-2.288 0.004-3.163 0.417-0.42 0.975-0.651 1.57-0.651s1.153,0.231 1.574,0.655c0.871,0.871 0.871,2.288 0.001,3.159z"/>
    <path d="m24.442,25.381c-0.537,0.14-1.073,0.304-1.594,0.488-0.781,0.276-1.19,1.134-0.914,1.915 0.218,0.615 0.796,0.999 1.414,0.999 0.166,0 0.335-0.027 0.5-0.086 0.44-0.155 0.889-0.294 1.347-0.412 0.802-0.209 1.283-1.027 1.075-1.829-0.207-0.801-1.024-1.279-1.828-1.075z"/>
    <path d="m18.107,28.042c-1.856,1.095-3.585,2.438-5.138,3.992-1.972,1.972-3.601,4.229-4.841,6.709-0.37,0.741-0.07,1.642 0.671,2.013 0.215,0.107 0.444,0.158 0.67,0.158 0.55,0 1.08-0.304 1.343-0.829 1.095-2.191 2.535-4.187 4.279-5.93 1.375-1.375 2.903-2.563 4.541-3.529 0.713-0.421 0.951-1.341 0.53-2.054-0.421-0.713-1.341-0.949-2.055-0.53z"/>
    <path d="m47.084,37.119c-1.401,0-2.714,0.546-3.696,1.534-2.041,2.04-2.041,5.361-0.004,7.397 0.985,0.992 2.299,1.538 3.7,1.538 1.398,0 2.711-0.545 3.695-1.534 2.041-2.04 2.041-5.361 0.004-7.397-0.985-0.992-2.298-1.538-3.699-1.538zm1.575,6.814c-0.001,0.001-0.002,0.002-0.004,0.004-0.835,0.841-2.302,0.844-3.145-0.004-0.871-0.871-0.871-2.288 0.004-3.163 0.417-0.42 0.975-0.651 1.571-0.651 0.595,0 1.153,0.231 1.574,0.655 0.87,0.871 0.87,2.288 7.10543e-15,3.159z"/>
    <path d="m34.639,40.173c-2.889,0-5.24,2.347-5.24,5.23 0,2.89 2.351,5.24 5.24,5.24 2.884,0 5.23-2.351 5.23-5.24 0-2.883-2.346-5.23-5.23-5.23zm0,7.471c-1.235,0-2.24-1.005-2.24-2.24 0-1.229 1.005-2.23 2.24-2.23 1.229,0 2.23,1.001 2.23,2.23 0,1.235-1,2.24-2.23,2.24z"/>
  </g>
</svg>
