<?xml version='1.0' encoding='iso-8859-1'?>
<svg version="1.1" xmlns="http://www.w3.org/2000/svg" viewBox="0 0 87.679 87.679" xmlns:xlink="http://www.w3.org/1999/xlink" enable-background="new 0 0 87.679 87.679">
  <g>
    <path d="m49.179,16.149c0.384,0 0.768-0.146 1.061-0.439l6.79-6.79c0.586-0.585 0.586-1.536 0-2.121-0.586-0.586-1.535-0.586-2.121,0l-6.79,6.79c-0.586,0.585-0.586,1.536 0,2.121 0.292,0.293 0.676,0.439 1.06,0.439z"/>
    <path d="m55.738,23.33c0.293,0.293 0.677,0.439 1.061,0.439s0.768-0.146 1.061-0.439l7.66-7.66c0.586-0.585 0.586-1.535 0-2.121s-1.535-0.586-2.121,0l-7.66,7.66c-0.587,0.585-0.587,1.535-0.001,2.121z"/>
    <path d="m68.149,12.419c0.384,0 0.768-0.146 1.061-0.439l3.31-3.31c0.586-0.585 0.586-1.536 0-2.121-0.586-0.586-1.535-0.586-2.121,0l-3.31,3.31c-0.586,0.585-0.586,1.536 0,2.121 0.293,0.292 0.677,0.439 1.06,0.439z"/>
    <path d="m87.239,7.069c-0.586-0.586-1.535-0.586-2.121,0l-21.76,21.76c-0.586,0.585-0.586,1.536 0,2.121 0.293,0.293 0.677,0.439 1.061,0.439s0.768-0.146 1.061-0.439l21.76-21.76c0.585-0.586 0.585-1.536-0.001-2.121z"/>
    <path d="m62.434,47.433c-0.333-3.626-1.28-7.117-2.815-10.375-0.001-0.002-0.001-0.003-0.002-0.005-1.518-3.24-3.585-6.182-6.137-8.733-0.518-0.53-1.019-0.995-1.495-1.393-1.457-1.292-3.054-2.458-4.749-3.466-0.002-0.001-0.003-0.002-0.004-0.003-0.957-0.565-1.882-1.05-2.826-1.481-2.741-1.261-5.652-2.11-8.655-2.524-0.69-0.094-1.38-0.167-2.083-0.22-0.586-0.042-1.207,0.087-1.727,0.081-1.982-0.042-3.977-0.405-5.924,0.595-0.005,0-0.009,0-0.014,0-3.96,0-7.691,1.726-11.08,3.845-1.638,1.008-3.208,2.155-4.665,3.155 0,0-0.001,0-0.001,0-0.001,0-0.002,0.234-0.003,0.235-0.003,0.003-0.007,0.122-0.011,0.126-0.001,0.001-0.001,0.06-0.002,0.06-0.315,0.283-0.629,0.605-0.932,0.909-0.141,0.141-0.29,0.308-0.423,0.47-2.352,2.434-4.423,5.2-5.845,8.203-1.398,2.911-1.921,6.016-2.921,9.214 0,0 0,0.001 0,0.002 0,1.755-0.169,3.562-0.104,5.407l.139,1.066c0.214,3.109 0.919,6.113 2.014,8.933 0.001,0.002 0.02,0.004 0.021,0.007 0.002,0.006 0.015,0.012 0.017,0.018 0.002,0.005 0.008,0.011 0.01,0.016 0.001,0.001 0.004,0.003 0.005,0.004 0.247,0.676 0.542,1.371 0.901,2.123 1.243,2.624 2.849,5.06 4.803,7.277 0.067,0.079 0.135,0.155 0.208,0.228 0.341,0.406 0.723,0.821 1.134,1.232 1.953,1.953 4.154,3.639 6.574,5.028 0.111,0.064 0.222,0.125 0.333,0.183 0.004,0.002 0.008,0.006 0.012,0.008 3.908,2.185 8.361,3.508 12.868,3.826 0.733,0.056 1.477,0.084 2.222,0.084 0.373,0 0.747-0.008 1.119-0.021 0.004,0 0.008-0.001 0.012-0.002 3.489-0.108 6.896-0.789 10.127-2.026 0.496-0.189 0.99-0.391 1.486-0.611 0.048-0.022 0.095-0.046 0.14-0.072 3.026-1.35 5.809-3.182 8.273-5.447 0.04-0.033 0.08-0.073 0.119-0.11 0.274-0.229 0.545-0.489 0.776-0.73l-.085-.088c3.861-3.851 6.874-8.646 7.874-13.867 0-0.001 0-0.001 0-0.002 0-0.001 0,0.316 0,0.316s0.174,0 0.174,0h0.087c0.29-1 0.563-2.286 0.726-3.314 0.003-0.018 0.027-0.115 0.029-0.133 0.397-2.375 0.518-4.864 0.341-7.282-0.009-0.231-0.02-0.513-0.041-0.746zm-11.085-17.003c2.125,2.125 3.853,4.55 5.185,7.193l-5.864,9.428-8.333,.812-7.865-8.463 1.055-7.517 11.586-4.715c0.058-0.023 0.102-0.065 0.156-0.094 0.953,0.656 1.883,1.35 2.758,2.126 0.434,0.363 0.863,0.761 1.322,1.23zm-35.702,32.012l-10.878-2.675c-0.837-2.34-1.367-4.81-1.542-7.354l-.059-1.016c-0.047-1.355 0.022-2.7 0.16-4.023l9.865-4.018 6.415,3.07 1.358,11.283-5.319,4.733zm.857-36.061c2.83-1.769 5.919-2.993 9.188-3.661l6.94,8.215-1.114,7.936-10.54,4.884-6.466-3.094-.886-12.072c-0.003-0.046-0.024-0.086-0.031-0.131 0.932-0.759 1.903-1.458 2.909-2.077zm1.85,49.027l-.785-10.659 5.332-4.743 11.466,2.265 2.447,6.429-6.118,9.861c-0.475-0.01-0.95-0.031-1.421-0.067-3.869-0.274-7.537-1.318-10.921-3.086zm33.287-5.434l-12.283-3.02-2.258-5.934 5.682-10.185 8.367-.815 7.198,8.525c-1.277,4.27-3.578,8.196-6.706,11.429z"/>
  </g>
</svg>
