<?xml version='1.0' encoding='iso-8859-1'?>
<svg version="1.1" xmlns="http://www.w3.org/2000/svg" viewBox="0 0 75.574 75.574" xmlns:xlink="http://www.w3.org/1999/xlink" enable-background="new 0 0 75.574 75.574">
  <path d="m56.055,12.782c0.384,0 0.769-0.147 1.062-0.441l3.3-3.31c0.586-0.587 0.583-1.537-0.004-2.122-0.586-0.584-1.536-0.583-2.121,0.004l-3.3,3.31c-0.585,0.587-0.583,1.537 0.004,2.122 0.291,0.291 0.676,0.437 1.059,0.437z"/>
  <path d="m37.084,16.512c0.384,0 0.767-0.146 1.06-0.438l6.79-6.78c0.587-0.586 0.587-1.535 0.002-2.122-0.585-0.585-1.534-0.587-2.121-0.001l-6.791,6.779c-0.586,0.586-0.587,1.536-0.001,2.122 0.293,0.293 0.676,0.44 1.061,0.44z"/>
  <path d="m43.644,23.693c0.293,0.293 0.677,0.439 1.061,0.439 0.385,0 0.769-0.146 1.06-0.439l7.66-7.661c0.586-0.585 0.586-1.535 0-2.121s-1.535-0.586-2.121,0l-7.66,7.661c-0.586,0.585-0.586,1.535 7.10543e-15,2.121z"/>
  <path d="m39.355,29.752c-9.162-9.173-21.615-11.648-27.766-5.516-0.002,0.002-0.005,0.003-0.008,0.005l-8.206,8.209 0,0c-6.138,6.138-3.666,18.596 5.51,27.772 5.762,5.763 12.821,8.88 18.798,8.88 3.534-0.001 6.689-1.091 8.972-3.369 0.001-0.001 0.002-0.001 0.003-0.002l8.053-8.063c0.004-0.003 0.008-0.006 0.011-0.009 0.01-0.011 0.02-0.021 0.03-0.031l.116-.117c0.001-0.002 0.002-0.004 0.003-0.005 6.126-6.146 3.654-18.596-5.516-27.754zm-2.121,2.121c8.003,7.994 10.474,18.545 5.509,23.519l-.001,.001-.122,.122c-0.556,0.537-1.168,0.973-1.883,1.334-5.568,2.871-14.62-0.055-21.521-6.959-3.961-3.955-6.683-8.648-7.663-13.217-0.93-4.331-0.164-7.993 2.151-10.309 1.74-1.737 4.161-2.565 6.917-2.565 5.126-3.55271e-15 11.411,2.867 16.613,8.074zm-26.229,26.229c-7.097-7.097-9.833-16.188-6.906-21.623-0.012,0.221-0.033,0.659-0.036,0.885-0.01,0.828 0.652,1.739 1.481,1.739h0.02c0.819,0 1.489-0.878 1.499-1.7 0.024-1.817 0.419-3.548 1.147-4.914-0.081,1.551 0.036,3.139 0.407,4.868 1.101,5.126 4.11,10.324 8.476,14.682 5.738,5.74 12.715,8.927 18.708,8.927 0.303,0 0.595-0.037 0.893-0.054-2.326,1.216-5.404,1.462-8.8,0.645-0.801-0.192-1.615,0.3-1.809,1.106-0.194,0.806 0.302,1.614 1.106,1.808 1.563,0.376 3.081,0.56 4.526,0.56 0.314,0 0.621-0.021 0.928-0.038-5.434,2.942-14.537,0.21-21.64-6.891z"/>
  <path d="m75.135,7.431c-0.586-0.586-1.536-0.586-2.121,0l-21.76,21.761c-0.586,0.586-0.586,1.535 0,2.121 0.293,0.293 0.677,0.439 1.06,0.439 0.384,0 0.768-0.146 1.061-0.439l21.761-21.76c0.585-0.586 0.585-1.536-0.001-2.122z"/>
</svg>
