<?xml version='1.0' encoding='iso-8859-1'?>
<svg version="1.1" xmlns="http://www.w3.org/2000/svg" viewBox="0 0 85.42 85.42" xmlns:xlink="http://www.w3.org/1999/xlink" enable-background="new 0 0 85.42 85.42">
  <g>
    <path d="m12.673,49.286c-0.924,1.267-1.805,2.543-2.589,3.814-0.436,0.705-0.217,1.629 0.488,2.064 0.246,0.152 0.518,0.224 0.787,0.224 0.503,0 0.994-0.253 1.277-0.712 0.665-1.078 1.408-2.161 2.182-3.241l1.745,1.748c0.293,0.294 0.678,0.441 1.062,0.441 0.383,0 0.767-0.146 1.059-0.438 0.587-0.585 0.589-1.535 0.004-2.122l-2.052-2.055c1.204-1.521 2.508-3.018 3.9-4.474l3.088,3.089c0.293,0.293 0.677,0.439 1.061,0.439s0.768-0.146 1.061-0.439c0.586-0.586 0.586-1.536 0-2.121l-3.088-3.088c1.447-1.381 2.945-2.684 4.48-3.897l2.496,2.495c0.293,0.293 0.677,0.439 1.061,0.439s0.768-0.146 1.061-0.439c0.586-0.586 0.586-1.536 0-2.121l-2.195-2.195c1.045-0.751 2.121-1.491 3.253-2.197 0.703-0.438 0.917-1.364 0.479-2.067s-1.364-0.917-2.066-0.479c-1.333,0.831-2.597,1.707-3.812,2.596l-2.174-2.173c-0.586-0.586-1.535-0.586-2.121,0-0.586,0.585-0.586,1.536 0,2.121l1.883,1.883c-1.528,1.221-3.021,2.53-4.465,3.913l-2.327-2.327c-0.586-0.586-1.535-0.585-2.121,0-0.586,0.586-0.586,1.536 0,2.122l2.327,2.327c-1.391,1.452-2.701,2.942-3.913,4.457l-1.872-1.875c-0.586-0.586-1.535-0.586-2.121,0-0.586,0.585-0.586,1.535 0,2.121l2.162,2.167z"/>
    <path d="m46.93,17.278c0.384,0 0.768-0.146 1.061-0.439l6.79-6.79c0.586-0.585 0.586-1.536 0-2.121-0.586-0.586-1.535-0.586-2.121,0l-6.79,6.79c-0.586,0.585-0.586,1.536 0,2.121 0.292,0.293 0.676,0.439 1.06,0.439z"/>
    <path d="m63.271,14.668c-0.586-0.586-1.535-0.586-2.121,0l-4.14,4.14c-0.586,0.586-0.586,1.536 0,2.121 0.293,0.293 0.677,0.439 1.061,0.439s0.768-0.146 1.061-0.439l4.14-4.14c0.584-0.586 0.584-1.536-0.001-2.121z"/>
    <path d="m65.9,13.538c0.383,0 0.767-0.146 1.06-0.438l3.31-3.3c0.586-0.585 0.588-1.535 0.003-2.121s-1.535-0.588-2.122-0.003l-3.31,3.3c-0.586,0.585-0.588,1.535-0.003,2.121 0.293,0.294 0.678,0.441 1.062,0.441z"/>
    <path d="m84.98,8.188c-0.586-0.586-1.535-0.586-2.121,0l-21.759,21.76c-0.586,0.585-0.586,1.536 0,2.121 0.293,0.293 0.677,0.439 1.061,0.439s0.768-0.146 1.061-0.439l21.76-21.76c0.584-0.586 0.584-1.536-0.002-2.121z"/>
    <path d="m54.349,25.14c-0.146-0.455-0.391-0.813-0.844-0.965-0.21-0.07-0.365-0.139-0.536-0.183-4.673-1.415-9.274-2.161-14.118-1.887-0.036,0.002-0.044-0.187-0.079-0.187-0.001,0-0.002,0-0.003,0-0.937,0-1.867,0.329-2.784,0.446-0.919,0.116-1.825,0.36-2.712,0.538-0.003,0.001-0.006,0.05-0.009,0.051-7.948,1.551-15.195,5.439-20.955,11.201-1.442,1.442-2.828,2.988-4.026,4.603-3.592,4.845-6.283,10.428-7.283,16.395 0,0 0,0.001 0,0.001 0,1.851 0,3.702-1,5.501 0,0.004 0,0.007 0,0.011 0,4.807 0.505,9.594 1.894,14.181 0.06,0.222 0.236,0.432 0.306,0.642 0.152,0.452 0.565,0.805 1.019,0.95 4.033,1.29 8.226,1.745 12.442,1.745 0.798,0 1.625-0.264 2.425-0.264 0.001,0 0.002,0 0.003,0 0.896,0 1.806,0.06 2.723-0.056 0.048-0.006 0.098,0.08 0.146,0.073 0.871-0.113 1.748-0.202 2.627-0.373 0.002,0 0.004,0.023 0.006,0.022 2.981-0.58 5.863-1.474 8.605-2.684 4.574-2.017 8.759-4.873 12.363-8.478 5.768-5.767 9.415-13.017 10.962-20.971 0.361-1.849 0.479-3.697 0.479-5.499 0-0.004 0-0.007 0-0.011 1-5.038-0.118-10.018-1.651-14.802zm-18.181,.423c0.155-0.021 0.312-0.038 0.468-0.057 0.465-0.055 0.938-0.09 1.41-0.128 1.788,3.157 3.992,6.088 6.604,8.701 2.624,2.624 5.557,4.827 8.71,6.605-0.037,0.448-0.07,0.896-0.124,1.349-0.02,0.17-0.04,0.341-0.063,0.512-0.019,0.145-0.049,0.292-0.07,0.438-3.746-1.836-7.144-4.266-10.121-7.243-2.98-2.988-5.405-6.382-7.229-10.108 0.14-0.021 0.274-0.05 0.415-0.069zm5.404-.645c2.569,0 5.127,0.477 7.659,1.03 0.084,0.018 0.168,0.118 0.251,0.137 0.822,0.185 1.642,0.433 2.458,0.674 0.228,0.766 0.423,1.559 0.602,2.335 0.036,0.156 0.073,0.322 0.107,0.479 0.163,0.753 0.305,1.515 0.421,2.276 0.022,0.142 0.039,0.288 0.059,0.43 0.101,0.712 0.182,1.429 0.242,2.147 0.008,0.101 0.021,0.201 0.028,0.302 0.058,0.773 0.086,1.549 0.096,2.327 0.001,0.085 0.001,0.17 0.002,0.255-2.412-1.499-4.668-3.452-6.727-5.511-2.05-2.051-3.843-3.88-5.349-6.88 0.051-0.001 0.101-0.001 0.151-0.001zm-27.141,11.381c0.668-0.668 1.357-1.308 2.067-1.92 4.667-4.027 10.211-6.806 16.218-8.171 2.004,4.314 4.733,8.232 8.144,11.651 3.409,3.409 7.334,6.145 11.671,8.164-0.262,1.155-0.575,2.294-0.942,3.412-1.252,3.808-3.084,7.392-5.478,10.62-0.16,0.216-0.34,0.418-0.505,0.63-0.978,1.262-2.023,2.48-3.167,3.623-1.336,1.336-2.758,2.561-4.254,3.671-4.176,3.097-8.941,5.265-14.031,6.421-2.02-4.342-4.757-8.264-8.162-11.661-3.408-3.417-7.326-6.151-11.653-8.157 1.571-6.914 5.028-13.22 10.092-18.283zm6.238,38.743c-0.167,0.022-0.334,0.042-0.501,0.062-0.455,0.054-0.903,0.087-1.352,0.124-1.781-3.159-3.989-6.093-6.616-8.71-2.624-2.624-5.551-4.824-8.69-6.595 0.037-0.451 0.07-0.9 0.125-1.356 0.02-0.165 0.039-0.33 0.061-0.496 0.02-0.149 0.05-0.3 0.072-0.449 3.734,1.824 7.125,4.253 10.102,7.239 2.976,2.968 5.406,6.363 7.243,10.111-0.147,0.02-0.297,0.051-0.444,0.07zm-5.431,.324c-0.809-0.01-1.616-0.04-2.419-0.101-0.046-0.003-0.091-0.009-0.137-0.013-0.781-0.062-1.558-0.152-2.333-0.263-0.108-0.016-0.217-0.028-0.325-0.045-0.777-0.118-1.551-0.263-2.321-0.43-0.146-0.032-0.292-0.066-0.438-0.1-0.782-0.179-1.561-0.376-2.334-0.605-0.228-0.77-0.423-1.545-0.601-2.323-0.036-0.157-0.073-0.314-0.107-0.472-0.164-0.757-0.305-1.517-0.422-2.28-0.021-0.136-0.037-0.272-0.056-0.408-0.102-0.722-0.185-1.445-0.246-2.171-0.008-0.093-0.019-0.187-0.026-0.28-0.058-0.772-0.087-1.547-0.098-2.322-0.001-0.085-0.001-0.169-0.002-0.254 2.401,1.494 4.65,3.284 6.708,5.342 2.062,2.055 3.858,4.309 5.361,6.726-0.068,1.42109e-14-0.136,1.42109e-14-0.204-0.001z"/>
  </g>
</svg>
