<?xml version='1.0' encoding='iso-8859-1'?>
<svg version="1.1" xmlns="http://www.w3.org/2000/svg" viewBox="0 0 73.64 73.64" xmlns:xlink="http://www.w3.org/1999/xlink" enable-background="new 0 0 73.64 73.64">
  <g>
    <path d="m39.8,27.955c-4.781-4.624-11.345-6.998-18.006-6.526-0.002,0-0.004,0.001-0.007,0.001-0.018,0.001-0.035,0.004-0.053,0.006-0.015,0.002-0.031,0.003-0.046,0.005-5.128,0.374-9.871,2.365-13.672,5.728-0.421,0.342-0.795,0.705-1.176,1.075-3.979,3.979-6.394,9.239-6.813,14.82-0.002,0.012-0.01,0.025-0.012,0.037-0.002,0.018-0.015,0.037-0.015,0.055 0,0.002 0,0.003 0,0.005 0,0.002 0,0.003 0,0.005 0,0.001 0,0.001 0,0.002 0,0.001 0,0.001 0,0.002 0,6.468 1.76,12.901 6.091,17.594 0.23,0.276 0.484,0.529 0.724,0.77 4.43,4.438 10.408,6.902 16.622,6.902 0.583,0 1.169-0.022 1.754-0.065 0.006,0 0.011-0.002 0.016-0.003 5.621-0.392 10.913-2.803 14.886-6.776 0.424-0.411 0.784-0.802 1.059-1.143 3.408-3.844 5.409-8.582 5.793-13.709 0.002-0.011 0.025-0.022 0.026-0.033 0.001-0.02 0.029-0.039 0.029-0.059 0-0.001 0-0.002 0-0.003 0-6.824-1.997-13.521-6.832-18.365-0.111-0.113-0.246-0.223-0.368-0.325zm-1.934,2.293c0.054,0.043 0.1,0.093 0.153,0.146 3.906,3.915 6.05,9.209 5.997,14.694-5.242,0.045-10.354-1.933-14.216-5.562-0.168-0.15-0.318-0.302-0.468-0.451-3.91-3.918-6.05-9.214-5.99-14.701 5.37-0.034 10.558,2.029 14.412,5.775 0.036,0.035 0.073,0.067 0.112,0.099zm-28.926,29.166c-0.179-0.179-0.368-0.365-0.588-0.626-3.519-3.816-5.425-8.88-5.378-14.066 5.48-0.034 10.763,2.113 14.671,6.029 0.09,0.09 0.188,0.184 0.271,0.287 0.028,0.035 0.057,0.068 0.088,0.101 3.664,3.846 5.674,8.993 5.63,14.291-5.491,0.05-10.782-2.097-14.694-6.016zm29.924-.905c-0.241,0.298-0.521,0.602-0.875,0.944-3.089,3.089-7.073,5.086-11.358,5.736-0.019-5.96-2.3-11.735-6.415-16.076-0.142-0.172-0.3-0.334-0.455-0.488-4.413-4.423-10.371-6.88-16.563-6.901 0.658-4.277 2.664-8.261 5.749-11.346 0.316-0.307 0.622-0.606 1.006-0.919 2.959-2.618 6.524-4.278 10.391-4.857 0.001,6.197 2.444,12.164 6.865,16.594 0.189,0.189 0.379,0.378 0.563,0.542 4.336,4.075 10.087,6.337 16.006,6.353-0.589,3.861-2.259,7.423-4.914,10.418z"/>
    <path d="m35.15,15.254c0.384,0 0.768-0.146 1.061-0.439l6.791-6.79c0.586-0.586 0.586-1.535 0-2.121s-1.535-0.586-2.121,0l-6.791,6.79c-0.586,0.586-0.586,1.535 0,2.121 0.292,0.293 0.676,0.439 1.06,0.439z"/>
    <path d="m41.699,22.424c0.293,0.293 0.677,0.439 1.061,0.439s0.768-0.146 1.061-0.439l7.66-7.66c0.586-0.586 0.586-1.535 0-2.121s-1.535-0.586-2.121,0l-7.66,7.66c-0.587,0.586-0.587,1.535-0.001,2.121z"/>
    <path d="m54.11,11.514c0.384,0 0.768-0.146 1.061-0.439l3.31-3.311c0.586-0.586 0.586-1.536 0-2.121-0.586-0.586-1.535-0.586-2.121,0l-3.31,3.311c-0.586,0.586-0.586,1.536 0,2.121 0.293,0.293 0.677,0.439 1.06,0.439z"/>
    <path d="m73.2,6.164c-0.586-0.586-1.535-0.586-2.121,0l-21.76,21.76c-0.586,0.586-0.586,1.535 0,2.121 0.293,0.293 0.677,0.439 1.061,0.439s0.768-0.146 1.061-0.439l21.759-21.76c0.586-0.586 0.586-1.535 0-2.121z"/>
  </g>
</svg>
