<?xml version='1.0' encoding='iso-8859-1'?>
<svg version="1.1" xmlns="http://www.w3.org/2000/svg" viewBox="0 0 87.53 87.53" xmlns:xlink="http://www.w3.org/1999/xlink" enable-background="new 0 0 87.53 87.53">
  <g>
    <path d="m49.03,15.94c0.384,0 0.768-0.146 1.061-0.439l6.79-6.79c0.586-0.586 0.586-1.535 0-2.121s-1.535-0.586-2.121,0l-6.79,6.79c-0.586,0.586-0.586,1.535 0,2.121 0.293,0.293 0.676,0.439 1.06,0.439z"/>
    <path d="m55.591,23.121c0.292,0.292 0.676,0.438 1.06,0.438s0.769-0.146 1.062-0.44l7.66-7.67c0.585-0.586 0.585-1.535-0.002-2.121-0.584-0.584-1.535-0.586-2.121,0.002l-7.661,7.67c-0.585,0.586-0.585,1.535 0.002,2.121z"/>
    <path d="m87.091,6.85c-0.586-0.586-1.535-0.586-2.121,0l-21.76,21.76c-0.586,0.586-0.586,1.535 0,2.121 0.293,0.293 0.677,0.439 1.061,0.439s0.768-0.146 1.061-0.439l21.76-21.76c0.585-0.586 0.585-1.535-0.001-2.121z"/>
    <path d="m61.453,42.363c-0.005-0.017-0.008-0.035-0.012-0.053-0.965-3.724-2.601-7.204-4.863-10.347-0.028-0.039-0.059-0.077-0.09-0.113-1.37-1.916-3.003-3.703-4.854-5.312-0.887-0.771-1.829-1.503-2.804-2.174-5.175-3.562-11.25-5.444-17.549-5.444-0.75-0.013-1.439,0.015-2.053,0.073-3.078,0.188-6.061,0.813-8.861,1.86-1.319,0.489-2.598,1.068-3.796,1.714-0.007,0.004-0.015,0.007-0.022,0.011-0.011,0.006-0.023,0.011-0.034,0.017-2.029,1.077-3.94,2.395-5.672,3.905-0.502,0.431-0.929,0.822-1.281,1.176-1.788,1.714-3.355,3.621-4.653,5.661-0.003,0.005-0.006,0.011-0.009,0.016-0.004,0.007-0.008,0.014-0.012,0.021-1.907,2.97-3.274,6.216-4.056,9.635-0.542,2.251-0.821,4.641-0.832,7.111 0,0.197 0.002,0.405 0.021,0.615 0.012,0.888 0.064,1.773 0.156,2.625 0.755,7.513 4.233,14.491 9.819,19.674l.269,.24c0.178,0.16 0.357,0.321 0.53,0.468 0.889,0.773 1.833,1.505 2.802,2.172 2.215,1.53 4.602,2.752 7.091,3.629 1.946,0.692 3.938,1.188 5.909,1.471 0.873,0.131 1.742,0.224 2.534,0.27 0.739,0.069 1.454,0.088 2.078,0.097 2.753,0 5.502-0.364 8.172-1.082 2.125-0.574 4.179-1.379 6.097-2.382 0.08-0.036 0.157-0.073 0.228-0.121 2.092-1.095 4.075-2.441 5.894-4.01 3.889-3.358 6.914-7.648 8.749-12.405 0.659-1.707 1.165-3.454 1.502-5.188 0.309-1.554 0.711-3.143 0.769-4.656 0.034-0.41 0.25-0.852 0.25-1.236v-0.13c0-2.676-0.547-5.297-1.199-7.792-7.10543e-15-0.006-0.216-0.011-0.218-0.016zm-5.018,9.278c-1.653-0.864-3.322-1.585-4.945-2.136-0.537-0.189-1.064-0.357-1.576-0.505-0.435-0.138-0.88-0.266-1.329-0.382-2.525-0.651-4.829-0.992-7.22-1.081-0.564-0.031-1.15-0.037-1.739-0.037-0.002,0-0.005,0-0.008,0-2.503,0-5.086,0.252-7.661,0.812-1.96-1.457-3.788-3.154-5.43-5.069-0.196-0.227-0.387-0.476-0.58-0.715 0.033-0.016 0.059-0.029 0.102-0.05 5.498-2.892 11.663-4.157 17.833-3.653 1.599,0.126 2.02,0.19 3.314,0.443 1.622,0.279 3.268,0.713 5.032,1.328 2.293,0.794 4.667,1.826 6.658,3.051 0.503,2.096 0.984,4.284 0.984,6.523v0.171c0,0.306-0.214,0.638-0.245,1.011-0.026,0.653-0.188,1.307-0.261,1.96-0.922-0.597-1.968-1.164-2.929-1.671zm-2.309-17.935c0.031,0.044 0.064,0.086 0.1,0.126 1.258,1.766 2.272,3.66 3.084,5.638-1.317-0.645-2.684-1.218-4.096-1.706-1.92-0.67-3.722-1.145-5.477-1.446-1.355-0.265-1.889-0.347-3.615-0.482-6.733-0.549-13.468,0.83-19.425,3.965-0.002,0.001-0.078,0.038-0.093,0.046-0.161,0.067-0.301,0.163-0.424,0.274-0.972-1.466-1.843-3.028-2.574-4.68-0.218-0.48-0.421-0.955-0.609-1.426 0.117-0.052 0.234-0.105 0.338-0.189 1.286-1.046 2.678-2.003 4.104-2.828l.297-.164c0.296-0.164 0.597-0.332 0.964-0.505 2.564-1.354 5.264-2.347 8.031-2.954 4.164-0.942 8.43-1.05 12.68-0.331 0.78,0.552 1.54,1.138 2.254,1.76 1.711,1.484 3.211,3.134 4.461,4.902zm-32.711-10.041c2.525-0.944 5.216-1.508 8.047-1.682 0.466-0.044 0.952-0.065 1.49-0.065 0.101,0 0.203,0 0.308,0.002 3.29,0 6.499,0.582 9.527,1.674-2.253,0.071-4.495,0.35-6.707,0.851-3.022,0.663-5.976,1.749-8.713,3.195-0.362,0.169-0.727,0.369-1.085,0.567l-.312,.173c-1.39,0.804-2.711,1.719-3.965,2.696-0.287-0.975-0.542-1.954-0.723-2.92-0.007-0.051-0.02-0.147-0.052-0.268-0.202-1.037-0.332-2.066-0.423-3.083 0.842-0.415 1.708-0.807 2.608-1.14zm-9.754,6.155c0.363-0.362 0.745-0.707 1.146-1.051 0.989-0.863 2.045-1.644 3.147-2.355 0.093,0.706 0.205,1.416 0.345,2.126 0.005,0.024 0.01,0.048 0.016,0.071 0.004,0.026 0.009,0.053 0.011,0.066 0.312,1.653 0.755,3.309 1.315,4.904 0.34,1.002 0.756,2.045 1.228,3.084 0.856,1.937 1.884,3.786 3.058,5.507 0.744,1.078 1.527,2.096 2.325,3.023 1.728,2.016 3.653,3.807 5.716,5.364-0.33,1.88-0.824,3.722-1.494,5.491-0.127,0.345-0.265,0.683-0.402,1.02-0.07-0.041-0.141-0.081-0.22-0.111-1.52-0.587-3.089-1.341-4.702-2.264-0.434-0.232-0.781-0.443-1.138-0.695-7.113-4.492-12.138-11.427-14.219-19.57 1.102-1.644 2.388-3.191 3.868-4.61zm-7.909,13.875c0.449-1.961 1.13-3.843 1.99-5.649 2.64,7.642 7.742,14.116 14.594,18.442 0.39,0.279 0.847,0.559 1.359,0.833 1.707,0.978 3.414,1.798 5.075,2.438 0.011,0.004 0.023,0.002 0.034,0.006-0.535,1.028-1.121,2.058-1.801,3.079-0.344,0.514-0.7,1.008-1.062,1.489-0.095-0.035-0.195-0.062-0.299-0.077-4.051-0.608-7.943-1.979-11.607-4.096-0.383-0.215-0.743-0.417-1.051-0.646-0.031-0.023-0.063-0.045-0.096-0.065-2.951-1.857-5.555-4.172-7.766-6.865-0.056-0.642-0.095-1.294-0.102-1.951-0.001-0.052-0.004-0.103-0.01-0.152-0.013-0.123-0.01-0.246-0.01-0.355 0.01-2.231 0.261-4.39 0.752-6.431zm8.519,27.348l-.26-.232c-3.778-3.505-6.491-7.94-7.895-12.814 1.585,1.467 3.29,2.802 5.129,3.963 0.446,0.325 0.91,0.586 1.326,0.819 3.52,2.034 7.273,3.438 11.175,4.191-0.186,0.203-0.372,0.41-0.561,0.604-0.812,0.835-1.491,1.476-2.16,2.035-1.396,1.216-2.907,2.308-4.494,3.272-0.606-0.448-1.204-0.913-1.778-1.413-0.164-0.139-0.324-0.283-0.482-0.425zm5.017,3.64c1.292-0.857 2.532-1.787 3.683-2.791 0.727-0.607 1.478-1.314 2.363-2.226 0.691-0.711 1.361-1.466 2.04-2.299 0.73-0.883 1.444-1.843 2.123-2.855 0.997-1.495 1.861-3.018 2.565-4.516 0.443-0.929 0.855-1.907 1.219-2.895 0.722-1.905 1.259-3.897 1.622-5.93 2.135-0.445 4.267-0.683 6.365-0.683 0.176,0 0.347,0.01 0.521,0.011 0.007,0.306 0.009,0.618 0.009,0.941 0,0.438 0.002,0.886-0.039,1.388-0.158,3.85-0.982,7.611-2.454,11.198-0.225,0.563-0.463,1.089-0.73,1.608-1.991,4.173-4.768,7.806-8.256,10.8-0.629,0.542-1.26,1.04-1.886,1.509-1.586-0.266-3.178-0.672-4.744-1.229-1.517-0.534-2.987-1.222-4.401-2.031zm21.313,2.718c-2.414,0.649-4.9,0.979-7.368,0.979-0.177-0.003-0.379-0.009-0.575-0.015 3.624-3.2 6.529-7.04 8.604-11.393 0.292-0.563 0.572-1.181 0.827-1.822 1.599-3.895 2.497-7.998 2.667-12.135 0.043-0.521 0.045-1.054 0.045-1.574 0-0.265-0.002-0.537-0.006-0.809 1.587,0.144 3.165,0.422 4.846,0.846-0.009,0.135-0.007,0.271 0.021,0.41 0.461,2.206 0.7,4.507 0.709,6.802l-.004,.244c-0.006,0.354-0.011,0.716-0.055,1.164-0.027,0.656-0.064,1.354-0.154,2.056-0.465,4.705-1.933,9.157-4.351,13.244-1.652,0.836-3.399,1.515-5.206,2.003zm11.04-5.886c-0.306,0.264-0.622,0.513-0.938,0.763 1.281-3.128 2.102-6.405 2.436-9.788 0.099-0.771 0.141-1.545 0.164-2.176 0.046-0.442 0.056-0.892 0.062-1.33l.005-.271c-0.008-2.121-0.202-4.217-0.556-6.255 1.397,0.492 2.817,1.1 4.226,1.837 1.258,0.665 2.477,1.439 3.66,2.269-0.291,1.252-0.674,2.504-1.149,3.735-1.658,4.3-4.395,8.179-7.91,11.216z"/>
  </g>
</svg>
